<?xml version="1.0" encoding="UTF-8"?>
<svg width="128px" height="128px" viewBox="0 0 128 128" version="1.1" xmlns="http://www.w3.org/2000/svg" xmlns:xlink="http://www.w3.org/1999/xlink">
    <title>icon</title>
    <defs>
        <polygon id="path-1" points="0 0 42.6393443 0 42.6393443 63.1229508 0 63.1229508"></polygon>
        <polygon id="path-3" points="0 0 45.147541 0 45.147541 102 0 102"></polygon>
    </defs>
    <g id="Page-1" stroke="none" stroke-width="1" fill="none" fill-rule="evenodd">
        <g id="icon">
            <g fill="#E64237" fill-rule="nonzero" id="Rectangle">
                <rect x="0" y="0" width="128" height="128"></rect>
            </g>
            <circle id="Oval" fill="#C4342D" cx="67" cy="64" r="45"></circle>
            <g id="artwork" transform="translate(13.000000, 13.000000)">
                <path d="M53.7172131,2.92622951 L53.7172131,2.92622951 C64.4528187,2.92622951 73.1557377,11.5437529 73.1557377,22.1740175 L73.1557377,80.2440152 C73.1557377,90.8742799 64.4528187,99.4918033 53.7172131,99.4918033 C42.9816075,99.4918033 34.2786885,90.8742799 34.2786885,80.2440152 L34.2786885,22.1740175 C34.2786885,11.5437529 42.9816075,2.92622951 53.7172131,2.92622951" id="Fill-1" fill="#FFFFFF"></path>
                <polygon id="Fill-3" fill="#FFFFFF" points="15.4279626 34.2786885 3.3442623 34.2786885 3.3442623 48.2717932 34.6967213 85.6967213 34.6967213 54.7808537"></polygon>
                <polygon id="Stroke-5" stroke="#000000" stroke-width="1.8585" points="15.4279626 34.2786885 3.3442623 34.2786885 3.3442623 48.2717932 34.6967213 85.6967213 34.6967213 54.7808537"></polygon>
                <path d="M87.3198568,55.5983607 C81.3668363,55.6064089 75.7389438,52.9257106 72.058089,48.3232928 L70.521378,46.4250392 C69.4112577,45.0607841 69.6362659,43.0679332 71.0242148,41.9767637 C72.4121637,40.8855943 74.4352984,41.1069081 75.5500443,42.4711632 L77.0946634,44.3688301 C81.2905901,49.4063958 88.6161909,50.636308 94.2798938,47.2592559 L66.2741231,12.5864662 C65.2081688,11.1867188 65.4980833,9.20574753 66.9178139,8.15784352 C68.3378429,7.11008618 70.3575458,7.39079832 71.4232016,8.79054582 L72.3891854,10.0558037 L101.299764,45.7999634 C102.321403,47.0570082 102.212927,48.8682909 101.054165,50.0066857 C97.4219522,53.5969852 92.4740084,55.6099288 87.3210505,55.5983607 L87.3198568,55.5983607 Z" id="Fill-7" fill="#E2E6EB"></path>
                <g id="Group-11" transform="translate(0.000000, 31.770492)">
                    <mask id="mask-2" fill="white">
                        <use xlink:href="#path-1"></use>
                    </mask>
                    <g id="Clip-10"></g>
                    <path d="M39.4514227,63.1229508 C38.4934835,63.1229508 37.5882287,62.6970919 36.9814698,61.956564 L0.721998756,17.9421858 C0.255238333,17.3726512 -4.43969965e-05,16.6603268 -4.43969965e-05,15.9237858 L-4.43969965e-05,3.18449137 C-4.43969965e-05,1.42509164 1.42820698,0 3.19150769,0 L15.959048,0 C16.9165432,0 17.8222419,0.425711241 18.4290009,1.16638678 L37.5800893,24.4149753 C38.7011134,25.7722898 38.5016229,27.7827159 37.1412989,28.8974208 C35.7768313,30.0158173 33.7654993,29.8169158 32.6447711,28.4596013 L14.4516219,6.3683921 L6.38409571,6.3683921 L6.38409571,14.784569 L41.9173798,57.9184352 C42.6998029,58.8698253 42.8590401,60.1875662 42.3324918,61.2982842 C41.8016517,62.4126938 40.6809235,63.1214742 39.4437272,63.1214742 L39.4514227,63.1229508 Z" id="Fill-9" fill="#E2E6EB" mask="url(#mask-2)"></path>
                </g>
                <g id="Group-14" transform="translate(31.352459, 0.000000)">
                    <mask id="mask-4" fill="white">
                        <use xlink:href="#path-3"></use>
                    </mask>
                    <g id="Clip-13"></g>
                    <path d="M22.5736867,6.37011813 C18.2969197,6.37011813 14.1974791,8.04759681 11.174407,11.0400119 C8.1468495,14.0284364 6.4499879,18.0806929 6.4499879,22.3085303 L6.4499879,79.6862821 C6.4499879,85.3803985 9.52165278,90.643691 14.5120616,93.4890496 C19.5020219,96.3378074 25.6453516,96.3378074 30.6357604,93.4890496 C35.6261693,90.643691 38.6978341,85.3803985 38.6978341,79.6862821 L38.6978341,22.3085303 C38.6978341,18.0809884 37.000524,14.0285842 33.973415,11.0400119 C30.9498944,8.04759681 26.8504538,6.37011813 22.5736867,6.37011813 M22.5736867,102 C16.5877977,102 10.8438263,99.6493129 6.61086754,95.4652229 C2.37820783,91.2817241 0,85.603274 0,79.6862821 L0,22.3080869 C0,16.0922525 2.6241623,10.1594464 7.23988303,5.93944211 C11.8551552,1.71589072 18.0390039,-0.412068573 24.3068808,0.0661975947 C30.5753558,0.544315967 36.3596967,3.58446896 40.2655136,8.45373878 C43.442139,12.3865765 45.1671097,17.2756509 45.147541,22.3080869 L45.147541,79.6862821 C45.147541,85.603274 42.7691657,91.2812807 38.5365059,95.4652229 C34.3041453,99.6493129 28.5595757,102 22.5736867,102" id="Fill-12" fill="#000000" mask="url(#mask-4)"></path>
                </g>
                <path d="M54.3439708,19.7868355 C53.0464516,19.7868355 51.8807349,20.5682957 51.3833921,21.7661186 C50.8866437,22.9639416 51.1634736,24.34201 52.0768784,25.2589887 C52.9944438,26.1725498 54.3725008,26.4490848 55.5703137,25.9524808 C56.7679781,25.4557283 57.548986,24.2895561 57.548986,22.9918774 C57.548986,22.1426579 57.2128673,21.3253864 56.6116576,20.7243203 C56.0108937,20.1235514 55.1933318,19.7868355 54.3444166,19.7868355 L54.3439708,19.7868355 Z M54.3439708,32.6065574 C50.4542364,32.6065574 46.9490621,30.2630683 45.4623832,26.6693023 C43.9722867,23.0799941 44.7975755,18.9416281 47.5456654,16.1932181 C50.2937553,13.4449567 54.4320868,12.6198096 58.0218108,14.1100671 C61.6155469,15.5963126 63.9590164,19.1016647 63.9590164,22.9918774 C63.9590164,28.299982 59.6526255,32.6065574 54.3444166,32.6065574 L54.3439708,32.6065574 Z" id="Fill-15" fill="#000000"></path>
                <polygon id="Fill-17" fill="#FB2A2A" points="44.3114754 76.0819672 63.9590164 76.0819672 63.9590164 69.3934426 44.3114754 69.3934426"></polygon>
                <polygon id="Fill-19" fill="#FB2A2A" points="50.5819672 82.7704918 57.2704918 82.7704918 57.2704918 63.1229508 50.5819672 63.1229508"></polygon>
            </g>
            <g id="slilce"></g>
        </g>
    </g>
</svg>