<?xml version="1.0" encoding="UTF-8"?>
<svg width="100px" height="100px" viewBox="0 0 100 100" version="1.1" xmlns="http://www.w3.org/2000/svg" xmlns:xlink="http://www.w3.org/1999/xlink">
    <title>paste-icon</title>
    <g id="paste-icon" stroke="none" stroke-width="1" fill="none" fill-rule="evenodd">
        <polygon id="Path" points="0 0 100 0 100 100 0 100"></polygon>
        <polygon id="Path" fill="#ffffff" fill-rule="nonzero" points="50 81.5 25 56.037037 40 56.037037 40 35.6666667 60 35.6666667 60 56.037037 75 56.037037"></polygon>
        <path d="M50,3 C52.4813632,3 54.7851327,3.73310167 56.7112988,4.98962151 C58.6982081,6.28576666 60.2849639,8.13643263 61.2511801,10.3109977 L61.2511801,10.3109977 L62.3375348,13 L85.6481481,13 C87.5332878,13 89.255905,13.7192206 90.5440535,14.8931549 C91.8110116,16.0477777 92.6606045,17.6448036 92.8097365,19.4317222 L92.8097365,19.4317222 L92.8333333,20.0566214 L92.8333333,90 C92.8333333,91.8233328 92.1044974,93.4854414 90.9279696,94.7299172 C89.7348477,95.9919454 88.0811648,96.8291589 86.2368034,96.9765859 L86.2368034,96.9765859 L85.5935656,97 L14.3518519,97 C12.4667122,97 10.744095,96.2807794 9.45594649,95.1068451 C8.18898838,93.9522223 7.33939546,92.3551964 7.1902635,90.5682778 L7.1902635,90.5682778 L7.16666667,89.9433786 L7.16666667,20 C7.16666667,18.1766672 7.89550261,16.5145586 9.07203041,15.2700828 C10.2651523,14.0080546 11.9188352,13.1708411 13.7631966,13.0234141 L13.7631966,13.0234141 L14.4064344,13 L37.9130707,13 C38.5100958,9.79572686 40.3760082,7.01092732 42.9791451,5.19829814 C44.965945,3.81483979 47.3842668,3 50,3 Z" id="Shape" stroke="#ffffff" stroke-width="6" fill-rule="nonzero"></path>
        <path d="M50,12.5 C47.7083333,12.5 45.8333333,14.375 45.8333333,16.6666667 C45.8333333,18.9583333 47.7083333,20.8333333 50,20.8333333 C52.2916667,20.8333333 54.1666667,18.9583333 54.1666667,16.6666667 C54.1666667,14.375 52.2916667,12.5 50,12.5 Z" id="Path" fill="#ffffff" fill-rule="nonzero"></path>
    </g>
</svg>